<?xml version="1.0" encoding="UTF-8"?><svg id="Layer_2" xmlns="http://www.w3.org/2000/svg" viewBox="0 0 3.4 4.3"><defs><style>.cls-1{stroke-width:0px;}</style></defs><g id="Layer_1-2"><path class="cls-1" d="M3.21.69c-.12-.22-.3-.38-.55-.51-.24-.12-.54-.18-.88-.18H.59c-.33,0-.59.26-.59.59v3.49c0,.12.1.22.22.22h.75c.12,0,.22-.1.22-.22v-.64c0-.33.26-.59.59-.59h0c.35,0,.65-.06.89-.19.24-.13.42-.3.54-.51.12-.21.18-.45.18-.71,0-.28-.06-.53-.18-.74ZM1.81,2.1c-.61-.14-.92.51-1.03.14-.12-.37.08-1.23.69-1.5.4-.18,1-.06,1.15.47.14.47-.2,1.02-.81.88Z"/></g></svg>