<?xml version="1.0" encoding="UTF-8"?><svg id="Layer_2" xmlns="http://www.w3.org/2000/svg" viewBox="0 0 50.13 63.45"><defs><style>.cls-1{stroke-width:0px;}</style></defs><g id="Layer_1-2"><path class="cls-1" d="M47.43,10.17c-1.8-3.18-4.49-5.67-8.05-7.47-3.57-1.8-7.91-2.7-13-2.7H8.73C3.91,0,0,3.91,0,8.73v51.45c0,1.8,1.46,3.27,3.27,3.27h11.11c1.8,0,3.27-1.46,3.27-3.27v-9.42c0-4.82,3.91-8.73,8.73-8.73h0c5.16,0,9.52-.95,13.09-2.83,3.57-1.89,6.24-4.41,8.01-7.56,1.77-3.15,2.66-6.64,2.66-10.49,0-4.14-.9-7.8-2.7-10.98ZM26.76,30.93c-9-2-13.5,7.6-15.21,2.12-1.71-5.47,1.21-18.12,10.21-22.12,5.9-2.62,14.73-.93,17,7,2,7-3,15-12,13Z"/></g></svg>